# Blender v2.79 (sub 0) OBJ File: '1_birch_tree.blend'
# www.blender.org
mtllib 1_birchSmall_fan.mtl
o birch_tree_fan_LOD_3000_CreateFan
v -3.178065 -0.052507 0.000000
v 0.000000 -0.052507 0.002841
v 0.000000 8.620093 0.002843
v -3.178065 8.620093 0.000002
v 3.178065 -0.052507 0.000000
v 0.000000 -0.052507 -0.002841
v 0.000000 8.620093 -0.002840
v 3.178065 8.620093 0.000002
v 0.000000 -0.052507 3.178065
v 0.002841 -0.052507 0.000000
v 0.002841 8.620093 0.000002
v 0.000000 8.620092 3.178067
v 0.000000 -0.052506 -3.178065
v -0.002841 -0.052507 0.000000
v -0.002841 8.620093 0.000002
v 0.000000 8.620094 -3.178063
vt 0.178013 0.000857
vt 0.500000 0.000857
vt 0.500000 0.999652
vt 0.178013 0.999652
vt 0.821987 0.000857
vt 0.500000 0.000857
vt 0.500000 0.999652
vt 0.821987 0.999652
vt 0.178013 0.000857
vt 0.500000 0.000857
vt 0.500000 0.999652
vt 0.178013 0.999652
vt 0.821987 0.000857
vt 0.500000 0.000857
vt 0.500000 0.999652
vt 0.821987 0.999652
vn -0.5976 0.3586 0.7172
vn -0.5976 0.3585 0.7172
vn 0.5976 0.3586 -0.7172
vn 0.5976 0.3585 -0.7172
vn 0.5976 0.3586 0.7172
vn 0.5976 0.3585 0.7172
vn -0.5976 0.3586 -0.7172
vn -0.5976 0.3585 -0.7172
vn 0.7172 0.3586 0.5976
vn 0.7172 0.3585 0.5976
vn -0.7172 0.3586 -0.5976
vn -0.7172 0.3585 -0.5976
vn 0.7172 0.3586 -0.5976
vn 0.7172 0.3585 -0.5976
vn -0.7172 0.3586 0.5976
vn -0.7172 0.3585 0.5976
usemtl CreateFan
s 1
f 1/1/1 2/2/1 3/3/1 4/4/2
f 5/5/3 6/6/3 7/7/3 8/8/4
f 5/5/5 8/8/6 3/3/5 2/2/5
f 1/1/7 4/4/8 7/7/7 6/6/7
f 9/9/9 10/10/9 11/11/9 12/12/10
f 13/13/11 14/14/11 15/15/11 16/16/12
f 13/13/13 16/16/14 11/11/13 10/10/13
f 9/9/15 12/12/16 15/15/15 14/14/15
