<svg xmlns="http://www.w3.org/2000/svg" viewBox="0 0 122.11 116"><defs><style>.cls-1{fill:#f8fbfa;}</style></defs><title>donate</title><g id="Capa_2" data-name="Capa 2"><g id="Capa_1-2" data-name="Capa 1"><path class="cls-1" d="M81.19,55.46v.19C81.32,55.65,81.31,55.59,81.19,55.46Z"/><path class="cls-1" d="M81,12.36C76-4.71,50.58-5.54,55,19,59,40.72,77.43,52.49,80.77,55.1v.36l.21-.19.21.19V55.1C84.53,52.49,103,40.72,106.93,19,111.38-5.54,86-4.71,81,12.36Z"/><path class="cls-1" d="M80.77,55.65v-.19C80.65,55.59,80.64,55.65,80.77,55.65Z"/><polygon class="cls-1" points="0 74.59 11.73 69.85 24.36 107.72 14.43 116 0 74.59"/><path class="cls-1" d="M16.24,73.4,26.16,103s9.92-8.28,13.53-7.1,19.85,4.74,22.56,7.1,8.12,3.55,11.72,3.55S89.31,97.07,93.82,94.7a76.15,76.15,0,0,0,12.63-8.28c2.71-2.37,5.41-9.47,8.12-13s9-15.38,7.22-17.75-5-1.77-5-1.77-.9-2.37-3.6-1.18-18,17.75-19,18.93,2.71,8.28-.9,11.83S82.54,87,78.94,85.83A77.31,77.31,0,0,0,63.6,83.46c-2.71,0-6.32,2.37-7.22,2.37s-5.41-1.19-.9-4.74,14.43,0,17.14,1.19a41.46,41.46,0,0,0,11.73,2.36c2.7,0,9,0,8.12-5.91s-13.53-8.28-17.14-9.47a67.91,67.91,0,0,1-14.44-5.91c-6.31-3.55-14.43-7.1-18-7.1S29.32,56.25,16.24,73.4Z"/></g></g></svg>