<svg xmlns="http://www.w3.org/2000/svg" viewBox="0 0 175.1 225.01"><defs><style>.cls-1{fill:none;stroke:#00b75f;stroke-linecap:round;stroke-linejoin:round;stroke-width:2.4px;}.cls-2{fill:#00b75f;}</style></defs><title>logo Verde</title><g id="Capa_2" data-name="Capa 2"><g id="Capa_2-2" data-name="Capa 2"><path class="cls-1" d="M78.83,68.69l-.36-1s-3-5.49-6.84-2.72S75,75,75,75l-1.67,3.46c0-.06.39-1-4.71-1.57C63.32,76.35,63,85.49,63,85.49s.51,6.28,4.83,4.24c-4.32,2-4.83-4.24-4.83-4.24-8.31,3-5,9.69-3.6,11.91s4.7.06,4.7.06l-2,4.08s-5.51-4.42-9.11-1.93.55,7.76,1.38,8.59,3.88,1.34,3.88,1.34,3.6,6.69,3.4,9.4,4.36,12.52,7.4,18.9c2.61,5.44,4.2,32.92,4.61,40.81a33.05,33.05,0,0,1,12.57-3.15c4.62-.08,9.51,1.37,14.06,3.42-1-8.54-.85-38.84,1.17-44.13,2.22-5.82,9.14-11.63,8.59-17.17s4.43-23,4.43-25.76-5.26-1.39-6.25.7-5.94,21.47-9,20.9c-.44-.08-1.69.13-.69-.87"/><path class="cls-2" d="M55.28,190.74a56.72,56.72,0,0,1,13.87-11.92,44.68,44.68,0,0,1,8.45-4,28.72,28.72,0,0,1,9.5-1.62A29,29,0,0,1,96.52,175a44.4,44.4,0,0,1,8.41,4.06,61.09,61.09,0,0,1,7.5,5.31,55.46,55.46,0,0,1,6.56,6.35A148.38,148.38,0,0,0,103.38,182a60.21,60.21,0,0,0-8.11-3.17l-1-.32-1-.25c-.68-.14-1.37-.37-2.06-.45l-2.07-.32c-.68-.06-1.36-.06-2-.1a28.63,28.63,0,0,0-8.23,1.21,61.67,61.67,0,0,0-8.1,3.12A129.52,129.52,0,0,0,55.28,190.74Z"/><path class="cls-2" d="M93.93,15.51l-2.2,28.27s-14-6.51-13-17,9.71-16.76,13-22A28.84,28.84,0,0,0,93.93,0h.25a28.84,28.84,0,0,0,2.2,4.75c3.3,5.26,12,11.51,13,22s-13,17-13,17l-2.2-28.27Z"/><path class="cls-2" d="M126.57,94.26l-6.34,7.32s-2.53-4.63-.12-7.31,6.06-2.63,8-3.41a10.08,10.08,0,0,0,1.57-.86l.06.06a10.16,10.16,0,0,0-.36,1.75c-.15,2.11,1,5.59-.89,8.68s-7,2-7,2l5.13-8.22Z"/><path class="cls-2" d="M121.29,120.68l-9.63-1.06s2.38-4.71,6-4.25,5.62,3.5,7.37,4.68a9.76,9.76,0,0,0,1.6.81v.08a10.49,10.49,0,0,0-1.65.7c-1.83,1.07-4.06,4-7.66,4.19s-5.66-4.63-5.66-4.63l9.67-.43Z"/><path class="cls-2" d="M112.61,141.48l-6.47-7.2s4.91-1.93,7.27.79,1.86,6.35,2.38,8.4a9.34,9.34,0,0,0,.65,1.66l-.06.07a9.44,9.44,0,0,0-1.69-.58c-2.08-.42-5.67.26-8.5-2s-1.14-7.23-1.14-7.23l7.5,6.12Z"/><path class="cls-2" d="M45,92.59l6.34,7.32s2.53-4.63.12-7.31-6.06-2.63-8-3.41a10.08,10.08,0,0,1-1.57-.86l-.06,0a10.13,10.13,0,0,1,.36,1.76c.15,2.11-1,5.59.89,8.68s7,2,7,2L45,92.64Z"/><path class="cls-2" d="M45.87,118.18l9.63-1.06s-2.38-4.71-6-4.25-5.61,3.5-7.36,4.68a10.2,10.2,0,0,1-1.6.81v.08a9.53,9.53,0,0,1,1.65.7c1.83,1.07,4.06,4,7.66,4.19s5.66-4.63,5.66-4.63l-9.67-.43Z"/><path class="cls-2" d="M57.6,139l6.46-7.21s-4.9-1.93-7.27.8-1.85,6.34-2.37,8.4a9.89,9.89,0,0,1-.66,1.66l.06.06a10.14,10.14,0,0,1,1.69-.57c2.08-.42,5.68.25,8.51-2s1.14-7.23,1.14-7.23L57.65,139Z"/><path class="cls-2" d="M151.13,59.18l-23.47,15.9s-3.65-15,5.19-20.77,19.16-2.86,25.32-3.55a28.53,28.53,0,0,0,5.09-1.25l.16.2a28.85,28.85,0,0,0-2.35,4.68c-2,5.86-1.51,16.56-9.1,23.9s-21.41.43-21.41.43l20.73-19.34Z"/><path class="cls-2" d="M129.51,39.74l-11.11,11s-3.51-7.77.69-11.8,10.1-3.51,13.38-4.51a15.8,15.8,0,0,0,2.63-1.19l.11.09a16.24,16.24,0,0,0-.8,2.78c-.51,3.38.87,9.14-2.5,13.89s-11.57,2.42-11.57,2.42l9.27-12.61Z"/><path class="cls-2" d="M38.38,30.08l9.13,12.71S39.29,45,36,40.24,34.1,29.71,33.62,26.32a16,16,0,0,0-.76-2.79l.1-.09a16.44,16.44,0,0,0,2.62,1.23c3.27,1,9.17.58,13.33,4.65s.57,11.81.57,11.81L38.49,30Z"/><path class="cls-2" d="M61,14.69l4.72,14.92s-8.51-.43-10.17-6,1.5-10.59,2.1-14a15.64,15.64,0,0,0,.14-2.89l.13,0a16.54,16.54,0,0,0,2.11,2c2.78,2,8.53,3.4,11.21,8.57s-3.14,11.4-3.14,11.4l-7-14Z"/><path class="cls-2" d="M63.15,44.24,70.63,58s-8.45,1.2-11.14-4-.55-10.68-.6-14.1a15.26,15.26,0,0,0-.41-2.87L58.6,37a16.15,16.15,0,0,0,2.45,1.54c3.1,1.44,9,1.72,12.64,6.28s-.91,11.79-.91,11.79L63.26,44.16Z"/><path class="cls-2" d="M15.09,73.57,26.29,84.5s-7.71,3.64-11.81-.5S10.81,74,9.75,70.7a15.8,15.8,0,0,0-1.24-2.61L8.6,68a16.44,16.44,0,0,0,2.79.75c3.4.46,9.13-1,13.94,2.27s2.61,11.53,2.61,11.53L15.18,73.46Z"/><path class="cls-2" d="M135,14.65l-9.11,12.72s-4.76-7.07-1.29-11.75S134,10.48,137,8.94a16.65,16.65,0,0,0,2.4-1.62l.11.07a15.47,15.47,0,0,0-.31,2.87c.06,3.43,2.38,8.87-.14,14.12s-11,4.32-11,4.32l7-14Z"/><path class="cls-2" d="M167.13,82.68l-14.9,4.79s.39-8.52,6-10.2,10.59,1.45,14,2a16.21,16.21,0,0,0,2.89.13l0,.13a15.55,15.55,0,0,0-2,2.11c-2,2.79-3.37,8.55-8.53,11.25s-11.41-3.08-11.41-3.08l14-7Z"/><path class="cls-2" d="M35.7,59.17l23.48,15.9s3.64-15-5.2-20.77-19.15-2.86-25.32-3.55a28.8,28.8,0,0,1-5.09-1.25l-.15.2a29.18,29.18,0,0,1,2.34,4.68c2,5.86,1.51,16.57,9.11,23.9s21.41.43,21.41.43L35.54,59.37Z"/><path class="cls-2" d="M154.77,110.21l-28.21-2.86s6.83-13.85,17.31-12.61,16.53,10.1,21.7,13.53a29.51,29.51,0,0,0,4.7,2.31v.25a28.59,28.59,0,0,0-4.8,2.09c-5.33,3.17-11.79,11.73-22.31,12.48s-16.7-13.4-16.7-13.4l28.31-1.54Z"/><path class="cls-2" d="M15.51,108l28.2-2.86S36.88,91.32,26.4,92.57,9.87,102.67,4.7,106.1A29.51,29.51,0,0,1,0,108.41v.25a29.09,29.09,0,0,1,4.8,2.08c5.33,3.18,11.79,11.74,22.31,12.49s16.7-13.4,16.7-13.4l-28.31-1.54Z"/><path class="cls-2" d="M114,56.3,99.21,49.2a10.67,10.67,0,0,0-14.23,5L59.92,106.24a10.66,10.66,0,0,0,5,14.23l14.74,7.09a10.66,10.66,0,0,0,14.23-5l25.06-52.06A10.65,10.65,0,0,0,114,56.3ZM115.81,73,93.35,119.62a10.64,10.64,0,0,1-14.22,5L67.51,119a10.65,10.65,0,0,1-5-14.23L85,58.12a10.65,10.65,0,0,1,14.23-5l11.62,5.59A10.65,10.65,0,0,1,115.81,73Z"/><path class="cls-2" d="M25.71,220.28h-.58a4.92,4.92,0,0,1-2.2-.58,3.09,3.09,0,0,1-1.22-1c-.4-.65-.6-2.07-.61-4.27,0-.46,0-1,0-1.64q0-4.27.37-11.48.28-5.49.28-6.63c0-.23,0-.34,0-.34L19.6,194a47,47,0,0,0-6.58-.66,10.09,10.09,0,0,0-1.48.09,7.54,7.54,0,0,0-1.33.35c-1.18.4-1.77.9-1.77,1.52a1,1,0,0,0,.31.58,3.25,3.25,0,0,0,2.38.84,4.91,4.91,0,0,0,1.44-.23,1.23,1.23,0,0,1,.36-.1c.16,0,.33.13.5.38a1.16,1.16,0,0,1,.26.65c0,.14-.12.3-.37.49a3.08,3.08,0,0,1-.66.37,4.63,4.63,0,0,1-1.41.19,4,4,0,0,1-3-1.55A4.39,4.39,0,0,1,7,194.12a2,2,0,0,1,.08-.63c.42-1.11,1.69-1.84,3.81-2.18a11.41,11.41,0,0,1,2-.14c.75,0,1.89.06,3.4.2s4.67.56,9.45,1.28a54.51,54.51,0,0,0,7.53.61q5.37,0,5.37-1.56a1.48,1.48,0,0,1,.11-.57c.08-.17.16-.26.25-.26a.52.52,0,0,1,.3.17,2.32,2.32,0,0,1,.56,1.74,2.73,2.73,0,0,1-2.2,2.67,17,17,0,0,1-4.05.34,37,37,0,0,1-5-.34l-.77-.1.05,2.55c0,1.1,0,2.44-.13,4-.22,4.38-.32,7.48-.32,9.29,0,2.75,0,4.56.12,5.42,0,.27.08.66.14,1.19a11.58,11.58,0,0,1,.09,1.17,2.79,2.79,0,0,1,0,.33.8.8,0,0,1-.34.49A2.58,2.58,0,0,1,25.71,220.28Z"/><path class="cls-2" d="M42.52,222a5.58,5.58,0,0,1-2.28-.59,4.72,4.72,0,0,1-2-1.47,7.11,7.11,0,0,1-1.14-2.69,13.76,13.76,0,0,1-.17-2.48v-2.24a35.58,35.58,0,0,1,.42-3.89,55.66,55.66,0,0,0,.64-6.4l0-1.91L35.3,199.2c-.07.48-.21,1.25-.4,2.31q-1.44,6.59-1.81,7.12c-.24.37-.46.55-.65.55a1.28,1.28,0,0,1-.58-.15,1,1,0,0,1-.37-.26.46.46,0,0,1-.06-.23v-.16a102.83,102.83,0,0,0,2-10.25.46.46,0,0,0-.13-.31v0a2.09,2.09,0,0,1-.53-1.37,1.39,1.39,0,0,1,.53-1.16,1.17,1.17,0,0,1,.75-.22,3.14,3.14,0,0,1,1.63.44,3.26,3.26,0,0,1,1,1.37,3.17,3.17,0,0,0,.5.88,10.69,10.69,0,0,0,2.12.94,9.22,9.22,0,0,1,3.63,2.09,3.68,3.68,0,0,1,1,1.47,7,7,0,0,1,.27,2.15c0,.8-.18,2.61-.54,5.44-.29,2.1-.45,3.53-.5,4.31q0,.63,0,1.44c0,.48,0,1,.05,1.52s.07,1,.12,1.39.1.59.15.59l.54-.72a36.78,36.78,0,0,0,3-6.53l.89-2.53c.11-.32.21-.59.29-.8s.17-.32.27-.33a1,1,0,0,1,.34,0,9.16,9.16,0,0,1,.89.23c.17,0,.24.14.22.25a33,33,0,0,1-1.62,5.52q-2.48,7.16-4.41,7.68A7.52,7.52,0,0,1,42.52,222Z"/><path class="cls-2" d="M54.41,217.62a6.21,6.21,0,0,1-3.72-1.36,6.87,6.87,0,0,1-1.9-2.5,8.74,8.74,0,0,1-.89-4q0-6,2.67-8.88a11,11,0,0,1,1.87-1.5,4.9,4.9,0,0,1,2.1-.5,5.05,5.05,0,0,1,2.56.75A4.58,4.58,0,0,1,59,201.82a3.43,3.43,0,0,1,.14,1A3.82,3.82,0,0,1,59,204a12.14,12.14,0,0,1-4.65,5.55.73.73,0,0,0-.22.2,7.66,7.66,0,0,0-.06,1.45,10.19,10.19,0,0,0,.23,1.94c.22,1,.4,1.81.55,2.3,0,.29.12.43.25.43q1.57,0,4.76-6.07a11.77,11.77,0,0,1,.93-1.61A.37.37,0,0,1,61,208c.64,0,.95.18.95.46a9.06,9.06,0,0,1-.43,1.08c-.57,1.28-1,2.22-1.29,2.81-1.27,2.5-2.44,4.08-3.53,4.72A4.7,4.7,0,0,1,54.41,217.62Zm-.08-9.86.42-.34a9.82,9.82,0,0,0,2.69-3.94,2.93,2.93,0,0,0,.17-1,1.92,1.92,0,0,0-.36-1.35.21.21,0,0,0-.15-.07c-.06,0-.16.09-.28.26a3.13,3.13,0,0,0-.57.78,22.09,22.09,0,0,0-.92,2.19,23.11,23.11,0,0,0-.79,2.47c-.06.29-.1.49-.14.61a1.19,1.19,0,0,0,0,.25.32.32,0,0,1,0,.14S54.32,207.76,54.33,207.76Z"/><path class="cls-2" d="M67,217.62a6.21,6.21,0,0,1-3.72-1.36,6.76,6.76,0,0,1-1.9-2.5,8.75,8.75,0,0,1-.9-4q0-6,2.67-8.88a11.06,11.06,0,0,1,1.88-1.5,4.82,4.82,0,0,1,2.09-.5,5,5,0,0,1,2.56.75,4.53,4.53,0,0,1,1.94,2.19,3.43,3.43,0,0,1,.14,1,4.14,4.14,0,0,1-.17,1.2A12.11,12.11,0,0,1,67,209.56a1.11,1.11,0,0,0-.22.2,7.66,7.66,0,0,0-.06,1.45,9.53,9.53,0,0,0,.24,1.94c.22,1,.4,1.81.54,2.3,0,.29.13.43.25.43,1.06,0,2.64-2,4.77-6.07a12.21,12.21,0,0,1,.92-1.61.36.36,0,0,1,.24-.17c.63,0,.95.18.95.46a10.57,10.57,0,0,1-.44,1.08c-.56,1.28-1,2.22-1.28,2.81-1.27,2.5-2.45,4.08-3.53,4.72A4.75,4.75,0,0,1,67,217.62ZM67,207.76l.42-.34a9.92,9.92,0,0,0,2.69-3.94,3.18,3.18,0,0,0,.17-1,1.92,1.92,0,0,0-.36-1.35.21.21,0,0,0-.16-.07c-.06,0-.15.09-.28.26a3.09,3.09,0,0,0-.56.78,19.89,19.89,0,0,0-.92,2.19,23.48,23.48,0,0,0-.8,2.47c0,.29-.1.49-.13.61a.86.86,0,0,0-.06.25.32.32,0,0,1,0,.14S67,207.76,67,207.76Z"/><path class="cls-2" d="M80.63,220.6a7.6,7.6,0,0,1-4.39-1.37,5.94,5.94,0,0,1-2.4-3.21,17.92,17.92,0,0,1-.65-5.31q.3-8.31,2.69-13A5.86,5.86,0,0,1,78,195a7.66,7.66,0,0,1,4.1-1.3,5.17,5.17,0,0,1,2.53.64,3.45,3.45,0,0,1,1.9,3.46,8.69,8.69,0,0,1-.46,2.65q-1.92,6-4.64,8.72a14.07,14.07,0,0,1-2,1.75,29.7,29.7,0,0,0,.44,5,12.56,12.56,0,0,0,.66,2c.12.3.2.44.23.44a1.9,1.9,0,0,0,.77-.45,10,10,0,0,0,2-2.31,24.68,24.68,0,0,0,2.48-5.38c.44-1.39.67-2.15.69-2.26s.07-.07.19-.07a2.41,2.41,0,0,1,.51.07l.65.14a.66.66,0,0,1,.27.09.2.2,0,0,1,0,.14c-.14.63-.57,2-1.3,4.11a32.36,32.36,0,0,1-1.47,3.3c-.49.93-1,1.77-1.45,2.5Q82.52,220.6,80.63,220.6Zm-1-12.34a1.24,1.24,0,0,0,.2-.18l.47-.5a8.24,8.24,0,0,0,.55-.65q3.7-6.08,3.7-9.3a7.94,7.94,0,0,0,0-.83,4.57,4.57,0,0,0-.13-.71c0-.19-.1-.28-.14-.28s-.27.18-.61.54a7.85,7.85,0,0,0-.92,1.64c-.21.59-.52,1.34-.94,2.25a32.81,32.81,0,0,0-1.87,6.33A12.82,12.82,0,0,0,79.58,208.26Z"/><path class="cls-2" d="M93.82,220.6a7.58,7.58,0,0,1-4.39-1.37A5.94,5.94,0,0,1,87,216a17.92,17.92,0,0,1-.65-5.31q.3-8.31,2.69-13A5.86,5.86,0,0,1,91.16,195a7.66,7.66,0,0,1,4.09-1.3,5.18,5.18,0,0,1,2.54.64,3.45,3.45,0,0,1,1.9,3.46,8.43,8.43,0,0,1-.47,2.65q-1.91,6-4.64,8.72a14.09,14.09,0,0,1-2,1.75,28.66,28.66,0,0,0,.44,5,11.59,11.59,0,0,0,.66,2c.12.3.2.44.23.44a2,2,0,0,0,.77-.45,10.05,10.05,0,0,0,2-2.31,25.19,25.19,0,0,0,2.49-5.38c.44-1.39.66-2.15.69-2.26s.07-.07.18-.07a2.41,2.41,0,0,1,.52.07l.65.14a.66.66,0,0,1,.27.09.2.2,0,0,1,0,.14c-.14.63-.57,2-1.3,4.11a32.36,32.36,0,0,1-1.47,3.3c-.49.93-1,1.77-1.45,2.5Q95.71,220.6,93.82,220.6Zm-1-12.34a1.24,1.24,0,0,0,.2-.18l.47-.5a8.24,8.24,0,0,0,.55-.65q3.7-6.08,3.7-9.3a7.94,7.94,0,0,0,0-.83,6.18,6.18,0,0,0-.13-.71c0-.19-.1-.28-.14-.28s-.28.18-.61.54a7.41,7.41,0,0,0-.92,1.64c-.21.59-.52,1.34-.94,2.25A32.12,32.12,0,0,0,93,206.57,12.82,12.82,0,0,0,92.77,208.26Z"/><path class="cls-2" d="M106,217.62a6.21,6.21,0,0,1-3.72-1.36,6.76,6.76,0,0,1-1.9-2.5,8.75,8.75,0,0,1-.9-4q0-6,2.67-8.88a11.06,11.06,0,0,1,1.88-1.5,4.82,4.82,0,0,1,2.09-.5,5,5,0,0,1,2.56.75,4.53,4.53,0,0,1,1.94,2.19,3.43,3.43,0,0,1,.14,1,4.14,4.14,0,0,1-.17,1.2,12.11,12.11,0,0,1-4.66,5.55,1.11,1.11,0,0,0-.22.2,7.66,7.66,0,0,0-.06,1.45,9.53,9.53,0,0,0,.24,1.94c.22,1,.4,1.81.54,2.3,0,.29.13.43.25.43,1.06,0,2.64-2,4.77-6.07a12.21,12.21,0,0,1,.92-1.61.36.36,0,0,1,.24-.17c.63,0,.95.18.95.46a10.57,10.57,0,0,1-.44,1.08c-.56,1.28-1,2.22-1.28,2.81-1.27,2.5-2.45,4.08-3.53,4.72A4.75,4.75,0,0,1,106,217.62Zm-.08-9.86.42-.34a9.92,9.92,0,0,0,2.69-3.94,3.18,3.18,0,0,0,.17-1,1.92,1.92,0,0,0-.36-1.35.21.21,0,0,0-.16-.07c-.06,0-.15.09-.28.26a3.09,3.09,0,0,0-.56.78,19.89,19.89,0,0,0-.92,2.19,23.48,23.48,0,0,0-.8,2.47c0,.29-.1.49-.13.61a.86.86,0,0,0-.06.25.32.32,0,0,1,0,.14S106,207.76,106,207.76Z"/><path class="cls-2" d="M130.24,223a3.68,3.68,0,0,1-1.72-.48,4.45,4.45,0,0,1-1.09-.78,8.17,8.17,0,0,1-2.69-4.6,8.69,8.69,0,0,1-.28-2.28q0-1.12.75-7.72c.14-1.6.22-3,.22-4.25,0-.83,0-1.54-.07-2.12a15.53,15.53,0,0,0-2.93,5.25c-.5,1.5-1.06,3.46-1.66,5.87a20.17,20.17,0,0,1-1.12,3.5,1.5,1.5,0,0,1-1.41.63,6,6,0,0,1-3.88-1.5,5.28,5.28,0,0,1-1.56-2,12.56,12.56,0,0,1-.65-4q0-2.31,0-3.09a5.45,5.45,0,0,1,.28-1.5,1.15,1.15,0,0,1,.81-.75,4,4,0,0,1,.94-.07,5.07,5.07,0,0,1,1.5.19c1.54.51,2.4,1.14,2.59,1.88,0,.1,0,.55,0,1.34q0,1.53,0,2.37a10.21,10.21,0,0,0,.29,2.66c.06-.08.53-1.61,1.4-4.59a24.9,24.9,0,0,1,1.91-4.72A16.62,16.62,0,0,1,123.5,200a4.43,4.43,0,0,1,1.4-1.24,3.34,3.34,0,0,1,1.34-.26,6,6,0,0,1,3.34,1,4,4,0,0,1,1.47,1.56,4.35,4.35,0,0,1,.63,2.25,95.35,95.35,0,0,1-.74,10.06c-.15,1.5-.25,2.49-.29,3s-.1.89-.16,1.26c-.13,1.44-.19,2.45-.19,3,0,.34.07.5.2.5a.45.45,0,0,0,.24-.09,15.39,15.39,0,0,0,2.53-4.75c.46-1.28.82-2.41,1.09-3.39,1-3.49,1.48-5.27,1.51-5.33a.27.27,0,0,1,.24-.09,3.06,3.06,0,0,1,1.14.25.67.67,0,0,1,.15.44,2.67,2.67,0,0,1-.08.56q-1.53,7.68-3.39,11c-1,1.79-1.86,2.84-2.69,3.15A5.19,5.19,0,0,1,130.24,223Z"/><path class="cls-2" d="M141.63,225a5.42,5.42,0,0,1-2.22-.56,3.57,3.57,0,0,1-2.09-2.78,3.48,3.48,0,0,1-.07-.64,6.48,6.48,0,0,1,1.27-3.41,7.08,7.08,0,0,1,3.61-2.77,26.59,26.59,0,0,1,2.78-.75c.24,0,.38-.09.42-.16a11.52,11.52,0,0,0,.07-1.87l-.08-3.9a3.77,3.77,0,0,0-.44.78c-1.35,2.79-2.62,4.31-3.78,4.56a2.91,2.91,0,0,1-.6.06,4.1,4.1,0,0,1-1.62-.37,5.42,5.42,0,0,1-2.67-2.33,5.85,5.85,0,0,1-.71-2.92,10.55,10.55,0,0,1,.75-3.69,10.34,10.34,0,0,1,1.88-3.19A5.1,5.1,0,0,1,142,199a5.79,5.79,0,0,1,3.42,1.34l.69.53.25-.37a1.58,1.58,0,0,1,1.39-.8A3.17,3.17,0,0,1,149,200a2.23,2.23,0,0,1,1.36,1.45,12.51,12.51,0,0,1,.34,3.5q0,3.9-.2,6.49l0,1.09.54-.31a13.41,13.41,0,0,0,2-1.88,6.77,6.77,0,0,0,.86-1.25c.33-.52.53-.82.6-.91a.38.38,0,0,1,.32-.13,1.08,1.08,0,0,1,.36.07,1,1,0,0,1,.35.19l.21.19c-.84,1.56-1.37,2.49-1.57,2.78a7,7,0,0,1-3.24,2.5,3.26,3.26,0,0,0-.65.32.34.34,0,0,0-.07.18,25.8,25.8,0,0,1-1.4,4.91,12,12,0,0,1-2.57,3.59A6.49,6.49,0,0,1,141.63,225Zm-1.56-1.75a1.46,1.46,0,0,1,.27,0,2.28,2.28,0,0,0,.6-.23,6.58,6.58,0,0,0,2.41-2.25,10,10,0,0,0,1.59-4.06c0-.21.08-.38.11-.52a3.09,3.09,0,0,0,.06-.34.76.76,0,0,1,0-.18s0,0,0-.07a.31.31,0,0,0-.05-.11,6.22,6.22,0,0,0-1.25.4,6.53,6.53,0,0,0-2.39,1.49,7.5,7.5,0,0,0-1.24,1.92,4.58,4.58,0,0,0-.56,2.16,3,3,0,0,0,.41,1.84Zm1-12.27a2.3,2.3,0,0,0,.47-.44,8.42,8.42,0,0,0,.89-1.17,39.22,39.22,0,0,0,2.33-4.42,11.45,11.45,0,0,0,.67-1.54v-.18h0a.57.57,0,0,0-.26.09l-.32.16q-2.48,1.22-3.25,5.37Z"/><path class="cls-2" d="M160.58,217.62a6.21,6.21,0,0,1-3.72-1.36,6.75,6.75,0,0,1-1.89-2.5,8.75,8.75,0,0,1-.9-4q0-6,2.67-8.88a11.39,11.39,0,0,1,1.87-1.5,4.9,4.9,0,0,1,2.1-.5,5,5,0,0,1,2.56.75,4.53,4.53,0,0,1,1.94,2.19,3.43,3.43,0,0,1,.14,1,4.14,4.14,0,0,1-.17,1.2,12.17,12.17,0,0,1-4.66,5.55.89.89,0,0,0-.22.2,7.66,7.66,0,0,0-.06,1.45,10.19,10.19,0,0,0,.23,1.94c.22,1,.4,1.81.55,2.3,0,.29.13.43.25.43q1.57,0,4.77-6.07a11.09,11.09,0,0,1,.92-1.61.37.37,0,0,1,.23-.17c.64,0,1,.18,1,.46a10.57,10.57,0,0,1-.44,1.08c-.56,1.28-1,2.22-1.28,2.81-1.27,2.5-2.45,4.08-3.53,4.72A4.76,4.76,0,0,1,160.58,217.62Zm-.08-9.86.43-.34a9.79,9.79,0,0,0,2.68-3.94,2.94,2.94,0,0,0,.18-1,1.92,1.92,0,0,0-.36-1.35.25.25,0,0,0-.16-.07c-.06,0-.16.09-.28.26a2.86,2.86,0,0,0-.56.78,21.65,21.65,0,0,0-.93,2.19,23.11,23.11,0,0,0-.79,2.47c-.05.29-.1.49-.13.61a.86.86,0,0,0-.06.25.32.32,0,0,1,0,.14S160.49,207.76,160.5,207.76Z"/></g></g></svg>