<svg xmlns="http://www.w3.org/2000/svg" viewBox="0 0 125 125"><defs><style>.cls-1{fill:#f8fbfa;}</style></defs><title>perfil</title><g id="Capa_2" data-name="Capa 2"><g id="Capa_1-2" data-name="Capa 1"><path class="cls-1" d="M43.75,60.94a7.81,7.81,0,1,0,7.81,7.81A7.81,7.81,0,0,0,43.75,60.94Zm37.5,0a7.81,7.81,0,1,0,7.81,7.81A7.81,7.81,0,0,0,81.25,60.94ZM62.5,0A62.5,62.5,0,1,0,125,62.5,62.52,62.52,0,0,0,62.5,0Zm0,112.5A49.82,49.82,0,0,1,12.81,57.13,63,63,0,0,0,45.38,23.56,62.33,62.33,0,0,0,96.38,50a60.6,60.6,0,0,0,14.06-1.63A49.94,49.94,0,0,1,62.5,112.5Z"/></g></g></svg>